# xmcd CD database file
#
# Track frame offsets:
#	150
#	21775
#	40237
#	56416
#	77808
#	101613
#	125142
#	146754
#	165846
#	188546
#	206118
#	224470
#	250409
#	270081
#	289288
#
# Disc length: 4174 seconds
#
# Revision: 0
# Processed by: cddbd v1.4PL0 Copyright (c) Steve Scherf et al.
# Submitted via: CDex 1.50
#
DISCID=d9104c0f
DTITLE=Bonnie Raitt - Road Tested
DYEAR=1995
DGENRE=Country
TTITLE0=Thing Called Love
TTITLE1=Something To Talk About
TTITLE2=Never Make Your Move Too Soon
TTITLE3=Shake A Little
TTITLE4=Matters Of The Heart
TTITLE5=Love Me Like A Man
TTITLE6=My Opening Farewell
TTITLE7=Dimming Of The Day
TTITLE8=Longing In Their Hearts
TTITLE9=Love Sneakin'Up On You
TTITLE10=Burning Down The House
TTITLE11=I Can't Make You Love Me
TTITLE12=I Believe I'In Love With You
TTITLE13=Rock Steady
TTITLE14=Angel From Montgomery
EXTD=YEAR: 1995
EXTT0=
EXTT1=
EXTT2=
EXTT3=
EXTT4=
EXTT5=
EXTT6=
EXTT7=
EXTT8=
EXTT9=
EXTT10=
EXTT11=
EXTT12=
EXTT13=
EXTT14=
PLAYORDER=
